# xmcd CD database file
#
# Track frame offsets:
#	183
#	23365
#	42170
#	66488
#	88203
#	122203
#	138263
#	171040
#	191063
#	225498
#
# Disc length: 3246 seconds
#
# Revision: 0
# Processed by: cddbd v1.5PL3 Copyright (c) Steve Scherf et al.
# Submitted via: CDex 1.50beta10
#
DISCID=820cac0a
DTITLE=Joe Houston and Otis Grand - The Return Of Honk
DYEAR=1994
DGENRE=Blues
TTITLE0=The Return Of Honk
TTITLE1=Camilla's Hop
TTITLE2=Mama Don't
TTITLE3=Fruit Boots
TTITLE4=Big Legged Woman
TTITLE5=They Killed Crazy Horse
TTITLE6=Castle Rock
TTITLE7=Why Oh Why
TTITLE8=Blues For T-Bone
TTITLE9=Down But Not Out
EXTD=YEAR: 1994
EXTT0=
EXTT1=
EXTT2=
EXTT3=
EXTT4=
EXTT5=
EXTT6=
EXTT7=
EXTT8=
EXTT9=
PLAYORDER=
